<svg width="15" height="14" viewBox="0 0 15 14" fill="none" xmlns="http://www.w3.org/2000/svg">
<path d="M4.85693 1.55237L5.37578 0.697502L4.85693 0.382594L4.33808 0.697502L4.85693 1.55237ZM7.85693 3.37318L7.33808 4.22804L7.85693 4.54295L8.37578 4.22804L7.85693 3.37318ZM1.85693 3.37318L1.33808 2.51831L0.856934 2.81034V3.37318H1.85693ZM1.85693 7.27491H0.856934V7.73644L1.20814 8.03587L1.85693 7.27491ZM7.85693 12.3905L7.20814 13.1515L7.85693 13.7046L8.50573 13.1515L7.85693 12.3905ZM13.8569 7.27491L14.5057 8.03587L14.8569 7.73644V7.27491H13.8569ZM13.8569 3.37318H14.8569V2.81034L14.3758 2.51831L13.8569 3.37318ZM10.8569 1.55237L11.3758 0.697502L10.8569 0.382594L10.3381 0.697502L10.8569 1.55237ZM4.33808 2.40723L7.33808 4.22804L8.37578 2.51831L5.37578 0.697502L4.33808 2.40723ZM2.37578 4.22804L5.37578 2.40723L4.33808 0.697502L1.33808 2.51831L2.37578 4.22804ZM2.85693 7.27491V3.37318H0.856934V7.27491H2.85693ZM8.50573 11.6296L2.50573 6.51395L1.20814 8.03587L7.20814 13.1515L8.50573 11.6296ZM8.50573 13.1515L14.5057 8.03587L13.2081 6.51395L7.20814 11.6296L8.50573 13.1515ZM14.8569 7.27491V3.37318H12.8569V7.27491H14.8569ZM14.3758 2.51831L11.3758 0.697502L10.3381 2.40723L13.3381 4.22804L14.3758 2.51831ZM10.3381 0.697502L7.33808 2.51831L8.37578 4.22804L11.3758 2.40723L10.3381 0.697502Z" fill="white"/>
</svg>
